PathFileType	4	(X/Y/Z)	TVC_39_BWA_03_walk_RCNL2025.trc
DataRate	CameraRate	NumFrames	NumMarkers	Units	OrigDataRate	OrigDataStartFrame	OrigNumFrames
100	100	6	27	mm	100	148	1176
Frame#	Time	R_Shoulder			L_Shoulder			C7			J_Notch			R_Elbow			L_Elbow			R_Wrist			L_Wrist			R_Asis			L_Asis			R_Psis			L_Psis			Sacral			Thoracic			Sternum			R_Thigh_Lateral			R_Knee_Lateral			R_Shank_Lateral			R_Ankle_Lateral			R_Heel			R_Toe			L_Thigh_Lateral			L_Knee_Lateral			L_Shank_Lateral			L_Ankle_Lateral			L_Heel			L_Toe		
		X1	Y1	Z1	X2	Y2	Z2	X3	Y3	Z3	X4	Y4	Z4	X5	Y5	Z5	X6	Y6	Z6	X7	Y7	Z7	X8	Y8	Z8	X9	Y9	Z9	X10	Y10	Z10	X11	Y11	Z11	X12	Y12	Z12	X13	Y13	Z13	X14	Y14	Z14	X15	Y15	Z15	X16	Y16	Z16	X17	Y17	Z17	X18	Y18	Z18	X19	Y19	Z19	X20	Y20	Z20	X21	Y21	Z21	X22	Y22	Z22	X23	Y23	Z23	X24	Y24	Z24	X25	Y25	Z25	X26	Y26	Z26	X27	Y27	Z27
148	1.47000000	-571.916870	1441.379395	184.971481	-547.280823	1486.807007	-177.907761	-592.856506	1527.815674	1.683823	-451.242889	1395.858643	-3.250166	-564.915527	1126.575317	302.468323	-633.976868	1192.610962	-322.820404	-449.974930	898.446533	278.547775	-539.414185	946.305939	-313.745132	-521.334290	925.693909	93.620911	-528.653564	923.808960	-197.814255	-722.434448	960.696716	8.444024	-725.768616	947.799072	-100.064743	-724.101532	954.247894	-45.810359	-706.245911	1208.529297	-37.982094	-416.650330	1232.769409	-8.407540	-552.808533	730.311096	174.771927	-533.347229	465.373322	95.814362	-614.417969	289.889984	148.758682	-666.907104	76.967125	42.946861	-711.994995	66.599342	-10.066614	-526.682617	46.563114	52.378376	-516.731689	694.672913	-290.389191	-410.344360	489.260284	-231.720993	-467.512085	362.307465	-282.188965	-533.938171	107.158043	-194.177536	-579.239197	98.353928	-134.351257	-401.906616	56.506355	-203.398834
149	1.48000000	-569.692383	1441.278564	184.367538	-545.312378	1486.291138	-178.641464	-590.814575	1527.498535	1.070993	-449.033691	1395.707642	-3.906385	-562.553284	1126.723633	302.415649	-632.070923	1191.636230	-322.906128	-447.722595	898.451416	279.674454	-537.690521	945.298248	-313.534988	-518.498779	925.900513	93.871010	-525.905090	923.144287	-197.629410	-719.686890	960.270203	8.678812	-722.998840	947.135254	-99.764465	-721.342865	953.702728	-45.542827	-703.743225	1208.014160	-38.288479	-414.249146	1232.660278	-8.921487	-550.124512	730.415283	174.979630	-532.546143	465.088318	95.939957	-614.107727	289.714111	148.900925	-666.902344	76.949585	42.973457	-711.927979	66.563583	-10.047593	-526.707642	46.560398	52.398647	-515.062012	693.548218	-289.949310	-407.771637	488.731567	-230.040131	-461.944366	360.187103	-280.501343	-519.568604	102.451820	-192.008591	-563.577393	92.310760	-131.770416	-385.857483	56.030804	-202.321945
150	1.49000000	-567.477112	1441.253540	183.631210	-543.304993	1485.787598	-179.512329	-588.768311	1527.225098	0.308975	-446.808319	1395.607300	-4.670715	-560.183899	1126.944824	302.243835	-630.093323	1190.671997	-323.079163	-445.414215	898.563965	280.619560	-535.929962	944.281677	-313.331055	-515.659119	926.144775	94.123917	-523.028381	922.497986	-197.452591	-716.895996	959.866150	8.827441	-720.139038	946.496826	-99.550636	-718.517517	953.181488	-45.361598	-701.193542	1207.523071	-38.708576	-411.816193	1232.606323	-9.502415	-547.434570	730.543701	175.150818	-531.808105	464.826477	96.059120	-613.857422	289.559723	149.043381	-666.908875	76.935883	43.002449	-711.864136	66.522034	-10.034951	-526.737915	46.554497	52.424030	-513.628296	692.173889	-289.441254	-405.270813	488.090851	-228.267685	-456.483978	358.089691	-278.808655	-505.885010	98.189903	-189.989639	-548.483093	86.811111	-129.407623	-370.719147	55.652706	-201.209778
151	1.50000000	-565.271606	1441.303711	182.764542	-541.257935	1485.295288	-180.518127	-586.716797	1526.995850	-0.600361	-444.566681	1395.557007	-5.540615	-557.804626	1127.235840	301.950958	-628.039978	1189.717896	-323.340942	-443.047684	898.780762	281.374908	-534.124969	943.259186	-313.137192	-512.815979	926.419678	94.380295	-520.022461	921.874573	-197.283432	-714.061646	959.482117	8.890148	-717.189636	945.884827	-99.424072	-715.625641	952.683472	-45.266962	-698.597046	1207.057129	-39.239349	-409.351715	1232.607300	-10.147794	-544.727112	730.679993	175.279938	-531.101624	464.581024	96.167206	-613.639587	289.424347	149.180374	-666.922424	76.927376	43.031319	-711.805115	66.481575	-10.027906	-526.771423	46.544842	52.452496	-512.406677	690.548096	-288.844940	-402.804749	487.355988	-226.411682	-451.178558	356.057281	-277.113464	-493.055267	94.397392	-188.112808	-534.159729	81.884277	-127.253860	-356.652130	55.331612	-200.050858
152	1.51000000	-563.076477	1441.428345	181.770126	-539.171326	1484.812378	-181.656189	-584.659058	1526.810913	-1.654507	-442.308685	1395.556274	-6.513206	-555.413147	1127.593628	301.535187	-625.907898	1188.771606	-323.692047	-440.621231	899.097809	281.933731	-532.268066	942.232941	-312.958054	-509.969330	926.718140	94.639702	-516.887268	921.278809	-197.122284	-711.183716	959.116089	8.867609	-714.151611	945.300537	-99.385170	-712.667664	952.208313	-45.258780	-695.953918	1206.617432	-39.876980	-406.856110	1232.662598	-10.854877	-541.993042	730.808716	175.361679	-530.397156	464.345612	96.259102	-613.428528	289.305878	149.306305	-666.939026	76.925316	43.057755	-711.751892	66.448105	-10.025764	-526.806213	46.531067	52.482204	-511.342651	688.687256	-288.143158	-400.340118	486.544525	-224.482956	-446.074738	354.121155	-275.417542	-481.226624	91.077477	-186.365601	-520.806946	77.536804	-125.293121	-343.792053	55.019424	-198.834229
153	1.52000000	-560.892151	1441.626221	180.651306	-537.045654	1484.337036	-182.923309	-582.594238	1526.670654	-2.850278	-440.034302	1395.604248	-7.585279	-553.007507	1128.014404	300.994812	-623.695679	1187.830322	-324.132080	-438.133591	899.510773	282.290596	-530.352356	941.204834	-312.798996	-507.118469	927.033142	94.900581	-513.624084	920.715698	-196.970245	-708.262085	958.766663	8.760908	-711.026428	944.745850	-99.433853	-709.644257	951.756256	-45.336473	-693.264465	1206.204956	-40.616905	-404.329681	1232.771729	-11.620736	-539.226074	730.915894	175.391281	-529.668640	464.114532	96.329453	-613.201599	289.202271	149.415710	-666.955322	76.930779	43.079704	-711.704590	66.426323	-10.028003	-526.840576	46.513050	52.511581	-510.352783	686.626892	-287.323486	-397.848419	485.673126	-222.495163	-441.213318	352.301880	-273.723083	-470.518188	88.214470	-184.733734	-508.612793	73.757126	-123.506744	-332.243134	54.666931	-197.552628
